<?xml version="1.0" encoding="UTF-8"?>
<!DOCTYPE svg PUBLIC "-//W3C//DTD SVG 1.1//EN" "http://www.w3.org/Graphics/SVG/1.1/DTD/svg11.dtd">
<svg xmlns="http://www.w3.org/2000/svg" version="1.1" width="48px" height="48px" style="shape-rendering:geometricPrecision; text-rendering:geometricPrecision; image-rendering:optimizeQuality; fill-rule:evenodd; clip-rule:evenodd" xmlns:xlink="http://www.w3.org/1999/xlink">
<g><path style="opacity:1" fill="#f1b209" d="M 18.5,-0.5 C 21.8333,-0.5 25.1667,-0.5 28.5,-0.5C 30.8835,0.88507 32.5501,2.88507 33.5,5.5C 33.3284,6.49162 33.6618,7.15829 34.5,7.5C 34.9438,12.1689 33.6105,16.1689 30.5,19.5C 29.2921,20.2341 27.9587,20.5674 26.5,20.5C 26.5,20.1667 26.5,19.8333 26.5,19.5C 26.5,19.1667 26.5,18.8333 26.5,18.5C 28.0109,17.4975 29.6776,16.8308 31.5,16.5C 33.9377,5.39595 29.6043,0.895952 18.5,3C 14.2789,6.82212 13.4455,11.3221 16,16.5C 17.3561,17.3802 18.8561,17.7135 20.5,17.5C 20.5,18.1667 20.5,18.8333 20.5,19.5C 20.5,19.8333 20.5,20.1667 20.5,20.5C 19.0413,20.5674 17.7079,20.2341 16.5,19.5C 13.471,16.0993 12.1376,12.0993 12.5,7.5C 13.3382,7.15829 13.6716,6.49162 13.5,5.5C 14.4499,2.88507 16.1165,0.88507 18.5,-0.5 Z"/></g>
<g><path style="opacity:1" fill="#fad31a" d="M 26.5,18.5 C 27.4278,15.8704 28.4278,13.2037 29.5,10.5C 25.5,2.5 21.5,2.5 17.5,10.5C 18.2515,12.9963 19.2515,15.3296 20.5,17.5C 18.8561,17.7135 17.3561,17.3802 16,16.5C 13.4455,11.3221 14.2789,6.82212 18.5,3C 29.6043,0.895952 33.9377,5.39595 31.5,16.5C 29.6776,16.8308 28.0109,17.4975 26.5,18.5 Z"/></g>
<g><path style="opacity:1" fill="#fdfbf1" d="M 26.5,18.5 C 26.5,18.8333 26.5,19.1667 26.5,19.5C 24.5,19.5 22.5,19.5 20.5,19.5C 20.5,18.8333 20.5,18.1667 20.5,17.5C 19.2515,15.3296 18.2515,12.9963 17.5,10.5C 21.5,2.5 25.5,2.5 29.5,10.5C 28.4278,13.2037 27.4278,15.8704 26.5,18.5 Z"/></g>
<g><path style="opacity:0.968" fill="#959da4" d="M 13.5,5.5 C 13.6716,6.49162 13.3382,7.15829 12.5,7.5C 9.83333,7.5 7.16667,7.5 4.5,7.5C 4.5,16.1667 4.5,24.8333 4.5,33.5C 7.16667,33.5 9.83333,33.5 12.5,33.5C 14.5,33.5 16.5,33.5 18.5,33.5C 19.8333,33.5 21.1667,33.5 22.5,33.5C 24.8333,33.5 27.1667,33.5 29.5,33.5C 30.8333,33.5 32.1667,33.5 33.5,33.5C 36.5,33.5 39.5,33.5 42.5,33.5C 42.5,30.5 42.5,27.5 42.5,24.5C 42.5,22.5 42.5,20.5 42.5,18.5C 42.5,17.5 42.5,16.5 42.5,15.5C 42.5,12.8333 42.5,10.1667 42.5,7.5C 39.8333,7.5 37.1667,7.5 34.5,7.5C 33.6618,7.15829 33.3284,6.49162 33.5,5.5C 37.1667,5.5 40.8333,5.5 44.5,5.5C 44.5,15.5 44.5,25.5 44.5,35.5C 30.5,35.5 16.5,35.5 2.5,35.5C 2.5,25.5 2.5,15.5 2.5,5.5C 6.16667,5.5 9.83333,5.5 13.5,5.5 Z"/></g>
<g><path style="opacity:1" fill="#e28770" d="M 16.5,19.5 C 17.7079,20.2341 19.0413,20.5674 20.5,20.5C 20.5,20.8333 20.5,21.1667 20.5,21.5C 19.5145,25.4432 18.8478,29.4432 18.5,33.5C 16.5,33.5 14.5,33.5 12.5,33.5C 12.9909,28.4824 14.3242,23.8157 16.5,19.5 Z"/></g>
<g><path style="opacity:1" fill="#626262" d="M 20.5,19.5 C 22.5,19.5 24.5,19.5 26.5,19.5C 26.5,19.8333 26.5,20.1667 26.5,20.5C 25.8333,21.5 25.1667,22.5 24.5,23.5C 22.9382,23.2671 21.6049,22.6005 20.5,21.5C 20.5,21.1667 20.5,20.8333 20.5,20.5C 20.5,20.1667 20.5,19.8333 20.5,19.5 Z"/></g>
<g><path style="opacity:1" fill="#b878b1" d="M 42.5,18.5 C 42.5,20.5 42.5,22.5 42.5,24.5C 36.6341,24.5292 33.6341,27.5292 33.5,33.5C 32.1667,33.5 30.8333,33.5 29.5,33.5C 29.8466,25.1473 34.1799,20.1473 42.5,18.5 Z"/></g>
<g><path style="opacity:1" fill="#c37c9f" d="M 42.5,15.5 C 42.5,16.5 42.5,17.5 42.5,18.5C 34.1799,20.1473 29.8466,25.1473 29.5,33.5C 27.1667,33.5 24.8333,33.5 22.5,33.5C 23.1667,30.1667 23.8333,26.8333 24.5,23.5C 25.1667,22.5 25.8333,21.5 26.5,20.5C 27.9587,20.5674 29.2921,20.2341 30.5,19.5C 34.0959,17.0395 38.0959,15.7061 42.5,15.5 Z"/></g>
<g><path style="opacity:1" fill="#cc7f8e" d="M 34.5,7.5 C 37.1667,7.5 39.8333,7.5 42.5,7.5C 42.5,10.1667 42.5,12.8333 42.5,15.5C 38.0959,15.7061 34.0959,17.0395 30.5,19.5C 33.6105,16.1689 34.9438,12.1689 34.5,7.5 Z"/></g>
<g><path style="opacity:1" fill="#f98f4f" d="M 12.5,7.5 C 12.1376,12.0993 13.471,16.0993 16.5,19.5C 14.3242,23.8157 12.9909,28.4824 12.5,33.5C 9.83333,33.5 7.16667,33.5 4.5,33.5C 4.5,24.8333 4.5,16.1667 4.5,7.5C 7.16667,7.5 9.83333,7.5 12.5,7.5 Z"/></g>
<g><path style="opacity:1" fill="#d38284" d="M 20.5,21.5 C 21.6049,22.6005 22.9382,23.2671 24.5,23.5C 23.8333,26.8333 23.1667,30.1667 22.5,33.5C 21.1667,33.5 19.8333,33.5 18.5,33.5C 18.8478,29.4432 19.5145,25.4432 20.5,21.5 Z"/></g>
<g><path style="opacity:1" fill="#a972c8" d="M 42.5,24.5 C 42.5,27.5 42.5,30.5 42.5,33.5C 39.5,33.5 36.5,33.5 33.5,33.5C 33.6341,27.5292 36.6341,24.5292 42.5,24.5 Z"/></g>
<g><path style="opacity:0.997" fill="#707b84" d="M 2.5,35.5 C 16.5,35.5 30.5,35.5 44.5,35.5C 45.5,36.1667 46.5,36.8333 47.5,37.5C 47.5,38.1667 47.5,38.8333 47.5,39.5C 39.3055,39.9365 31.3055,39.2698 23.5,37.5C 15.6945,39.2698 7.69451,39.9365 -0.5,39.5C -0.5,38.8333 -0.5,38.1667 -0.5,37.5C 0.5,36.8333 1.5,36.1667 2.5,35.5 Z"/></g>
<g><path style="opacity:0.991" fill="#929aa1" d="M 47.5,39.5 C 47.5,40.1667 47.5,40.8333 47.5,41.5C 31.5,41.5 15.5,41.5 -0.5,41.5C -0.5,40.8333 -0.5,40.1667 -0.5,39.5C 7.69451,39.9365 15.6945,39.2698 23.5,37.5C 31.3055,39.2698 39.3055,39.9365 47.5,39.5 Z"/></g>
</svg>
